<svg id="visual" viewBox="0 0 1490 600" width="1490" height="600" xmlns="http://www.w3.org/2000/svg" xmlns:xlink="http://www.w3.org/1999/xlink" version="1.1"><rect x="0" y="0" width="1490" height="600" fill="#c6d0d7"></rect><path d="M0 183L35.5 186.3C71 189.7 142 196.3 213 199C284 201.7 355 200.3 426 192.5C497 184.7 568 170.3 638.8 171.8C709.7 173.3 780.3 190.7 851.2 199.8C922 209 993 210 1064 205.8C1135 201.7 1206 192.3 1277 188C1348 183.7 1419 184.3 1454.5 184.7L1490 185L1490 0L1454.5 0C1419 0 1348 0 1277 0C1206 0 1135 0 1064 0C993 0 922 0 851.2 0C780.3 0 709.7 0 638.8 0C568 0 497 0 426 0C355 0 284 0 213 0C142 0 71 0 35.5 0L0 0Z" fill="#99bae0"></path><path d="M0 136L35.5 134.7C71 133.3 142 130.7 213 128.2C284 125.7 355 123.3 426 131.8C497 140.3 568 159.7 638.8 170.8C709.7 182 780.3 185 851.2 187.8C922 190.7 993 193.3 1064 186.7C1135 180 1206 164 1277 159.8C1348 155.7 1419 163.3 1454.5 167.2L1490 171L1490 0L1454.5 0C1419 0 1348 0 1277 0C1206 0 1135 0 1064 0C993 0 922 0 851.2 0C780.3 0 709.7 0 638.8 0C568 0 497 0 426 0C355 0 284 0 213 0C142 0 71 0 35.5 0L0 0Z" fill="#7ba7dc"></path><path d="M0 132L35.5 126.8C71 121.7 142 111.3 213 109C284 106.7 355 112.3 426 110.5C497 108.7 568 99.3 638.8 103.2C709.7 107 780.3 124 851.2 124.3C922 124.7 993 108.3 1064 107.5C1135 106.7 1206 121.3 1277 128.8C1348 136.3 1419 136.7 1454.5 136.8L1490 137L1490 0L1454.5 0C1419 0 1348 0 1277 0C1206 0 1135 0 1064 0C993 0 922 0 851.2 0C780.3 0 709.7 0 638.8 0C568 0 497 0 426 0C355 0 284 0 213 0C142 0 71 0 35.5 0L0 0Z" fill="#5e93d7"></path><path d="M0 74L35.5 78C71 82 142 90 213 96.5C284 103 355 108 426 102.7C497 97.3 568 81.7 638.8 78.8C709.7 76 780.3 86 851.2 86.8C922 87.7 993 79.3 1064 75.3C1135 71.3 1206 71.7 1277 77.8C1348 84 1419 96 1454.5 102L1490 108L1490 0L1454.5 0C1419 0 1348 0 1277 0C1206 0 1135 0 1064 0C993 0 922 0 851.2 0C780.3 0 709.7 0 638.8 0C568 0 497 0 426 0C355 0 284 0 213 0C142 0 71 0 35.5 0L0 0Z" fill="#3f7fd2"></path><path d="M0 62L35.5 62.7C71 63.3 142 64.7 213 66C284 67.3 355 68.7 426 69C497 69.3 568 68.7 638.8 67.7C709.7 66.7 780.3 65.3 851.2 59.3C922 53.3 993 42.7 1064 43.8C1135 45 1206 58 1277 60C1348 62 1419 53 1454.5 48.5L1490 44L1490 0L1454.5 0C1419 0 1348 0 1277 0C1206 0 1135 0 1064 0C993 0 922 0 851.2 0C780.3 0 709.7 0 638.8 0C568 0 497 0 426 0C355 0 284 0 213 0C142 0 71 0 35.5 0L0 0Z" fill="#166bcb"></path></svg>